<svg width="181" height="144" viewBox="0 0 181 144" fill="none" xmlns="http://www.w3.org/2000/svg">
<rect x="11.6375" y="2.67083" width="166.947" height="126.565" transform="rotate(4.06256 11.6375 2.67083)" fill="url(#paint0_linear_206_282)"/>
<path d="M59.9173 29.8099C64.5014 30.1355 67.9879 31.7935 70.3769 34.784C72.7681 37.7432 73.7777 41.8423 73.4056 47.0813C73.142 50.7923 72.2144 53.9233 70.6229 56.4743C69.0625 59.0275 66.9706 60.9005 64.3472 62.0932C61.7238 63.2859 58.7593 63.7649 55.4538 63.5301C53.7074 63.4061 52.0523 63.1005 50.4885 62.6133C48.9269 62.095 47.6102 61.4373 46.5385 60.6403L49.7405 55.2732C51.2534 56.4776 53.2572 57.1684 55.752 57.3456C58.5274 57.5427 60.7835 56.8881 62.5203 55.3817C64.2592 53.8441 65.3007 51.5361 65.6447 48.4577C63.5406 50.2827 60.7578 51.0724 57.2963 50.8265C55.2069 50.6781 53.3346 50.122 51.6792 49.1582C50.0239 48.1944 48.7515 46.9131 47.8621 45.3142C46.975 43.684 46.6034 41.8555 46.7473 39.8285C46.9024 37.6456 47.5843 35.7665 48.7932 34.1912C50.002 32.616 51.573 31.4582 53.5061 30.7179C55.4725 29.9487 57.6096 29.646 59.9173 29.8099ZM59.3822 45.2861C61.035 45.4035 62.4081 45.0466 63.5014 44.2153C64.6281 43.3551 65.2424 42.2077 65.3443 40.7732C65.4462 39.3388 65.0147 38.1328 64.0498 37.1553C63.1162 36.1801 61.7606 35.6294 59.983 35.5031C58.3614 35.388 57.0051 35.7304 55.914 36.5305C54.8541 37.3328 54.271 38.4824 54.1646 39.9792C54.0583 41.4761 54.472 42.7121 55.4057 43.6873C56.3728 44.6336 57.6983 45.1665 59.3822 45.2861ZM89.8215 65.9711C87.1085 65.7784 84.7393 64.9363 82.714 63.4447C80.6887 61.9532 79.1576 59.9012 78.1208 57.2889C77.1174 54.6476 76.7409 51.565 76.9912 48.0412C77.2414 44.5173 78.0488 41.5345 79.4132 39.0927C80.811 36.622 82.6178 34.7915 84.8336 33.6011C87.0494 32.4108 89.5138 31.912 92.2269 32.1047C94.9399 32.2974 97.3091 33.1395 99.3344 34.631C101.36 36.1226 102.874 38.189 103.877 40.8303C104.914 43.4426 105.308 46.5107 105.057 50.0346C104.807 53.5584 103.983 56.5557 102.585 59.0265C101.221 61.4682 99.4306 63.2843 97.2148 64.4746C94.999 65.6649 92.5346 66.1638 89.8215 65.9711ZM90.2767 59.5627C92.2725 59.7044 93.8926 58.9576 95.1371 57.3222C96.4127 55.689 97.1779 53.0793 97.4326 49.493C97.6873 45.9068 97.2987 43.2152 96.2667 41.4181C95.2658 39.6232 93.7675 38.6549 91.7717 38.5131C89.8071 38.3736 88.187 39.1204 86.9113 40.7536C85.6668 42.389 84.9173 44.9998 84.6626 48.586C84.4078 52.1723 84.7809 54.8628 85.7817 56.6577C86.8137 58.4548 88.3121 59.4231 90.2767 59.5627ZM121.569 68.2259C118.856 68.0332 116.487 67.1911 114.462 65.6996C112.437 64.208 110.906 62.1561 109.869 59.5438C108.865 56.9025 108.489 53.8199 108.739 50.2961C108.989 46.7722 109.797 43.7894 111.161 41.3476C112.559 38.8769 114.366 37.0463 116.582 35.856C118.797 34.6657 121.262 34.1669 123.975 34.3596C126.688 34.5523 129.057 35.3944 131.082 36.8859C133.108 38.3775 134.622 40.4439 135.625 43.0852C136.662 45.6975 137.055 48.7656 136.805 52.2894C136.555 55.8133 135.731 58.8106 134.333 61.2813C132.969 63.7231 131.178 65.5392 128.963 66.7295C126.747 67.9198 124.282 68.4186 121.569 68.2259ZM122.025 61.8175C124.02 61.9593 125.641 61.2124 126.885 59.577C128.161 57.9438 128.926 55.3341 129.181 51.7479C129.435 48.1617 129.047 45.47 128.015 43.6729C127.014 41.878 125.515 40.9097 123.52 40.768C121.555 40.6284 119.935 41.3753 118.659 43.0085C117.415 44.6439 116.665 47.2547 116.41 50.8409C116.156 54.4271 116.529 57.1177 117.53 58.9126C118.562 60.7097 120.06 61.678 122.025 61.8175ZM80.537 74.5591L79.7426 85.744L76.4994 85.5136L77.1048 76.9899L73.5706 76.7388L73.3264 78.7065C73.1666 80.1717 72.9414 81.3815 72.6507 82.3359C72.36 83.2904 71.9455 84.0271 71.4072 84.546C70.8689 85.065 70.1562 85.2929 69.2692 85.2299C68.798 85.1965 68.2425 85.0734 67.6029 84.8609L67.9583 82.2116C68.178 82.2551 68.3364 82.2803 68.4335 82.2871C68.9186 82.3216 69.2912 82.1739 69.5514 81.8442C69.8265 81.5015 70.0248 81.0629 70.1464 80.5283C70.2689 79.9798 70.383 79.2566 70.4885 78.3587L70.9738 73.8799L80.537 74.5591ZM94.1287 81.1869C94.1257 81.2285 94.0842 81.518 94.0043 82.0556L85.5429 81.4547C85.6461 82.1585 85.9676 82.7315 86.5073 83.1738C87.047 83.6161 87.7396 83.8673 88.585 83.9273C89.1671 83.9687 89.6858 83.9219 90.1412 83.7871C90.6113 83.6394 91.0537 83.3923 91.4684 83.0456L93.0611 85.0392C91.9221 86.1702 90.3408 86.6639 88.3173 86.5201C87.056 86.4306 85.9576 86.1088 85.0218 85.5548C84.0871 84.9869 83.3874 84.2477 82.9227 83.3371C82.4581 82.4266 82.2651 81.4169 82.3439 80.3081C82.4216 79.2132 82.7479 78.2473 83.3228 77.4106C83.9124 76.561 84.6749 75.9256 85.6103 75.5045C86.5605 75.0705 87.5969 74.8934 88.7195 74.9731C89.8144 75.0509 90.7887 75.3569 91.6422 75.8911C92.4958 76.4254 93.1405 77.1537 93.5765 78.0762C94.0273 78.9858 94.2113 80.0227 94.1287 81.1869ZM88.5661 77.4278C87.8315 77.3756 87.2 77.5397 86.6715 77.9201C86.143 78.3004 85.7977 78.847 85.6357 79.5598L91.1449 79.9511C91.0843 79.2364 90.8192 78.6534 90.3498 78.2022C89.8813 77.7371 89.2868 77.479 88.5661 77.4278ZM105.837 79.0305L102.053 78.7618L101.448 87.2856L98.2255 87.0567L98.8309 78.5329L95.0471 78.2642L95.2361 75.6031L106.026 76.3695L105.837 79.0305ZM44.7828 98.7072L46.0744 98.799L45.5343 106.403L52.4594 99.2525L53.6054 99.3339L52.9259 108.902L51.6343 108.811L52.1744 101.207L45.2675 108.358L44.1032 108.276L44.7828 98.7072ZM66.6897 100.501C67.575 100.564 68.3491 100.82 69.0119 101.269C69.6877 101.707 70.1943 102.298 70.5315 103.041C70.8696 103.772 71.0064 104.592 70.9418 105.501C70.8755 106.435 70.6103 107.251 70.1463 107.95C69.6953 108.637 69.0917 109.155 68.3357 109.503C67.5796 109.852 66.7286 109.992 65.7827 109.925C64.194 109.812 63.0027 109.167 62.2088 107.989C61.4148 106.812 61.0877 105.24 61.2272 103.276C61.3728 101.226 61.8724 99.6833 62.726 98.647C63.5918 97.6115 64.8692 96.9588 66.5582 96.6887L70.9211 96.0113L71.0554 97.2092L66.9511 97.8501C65.5592 98.056 64.5143 98.5241 63.8164 99.2546C63.1194 99.973 62.6872 101.082 62.5197 102.581C62.9603 101.869 63.5409 101.331 64.2615 100.968C64.9829 100.593 65.7923 100.437 66.6897 100.501ZM65.8953 108.854C66.5623 108.902 67.1673 108.792 67.7103 108.526C68.2663 108.249 68.7096 107.842 69.0403 107.304C69.3831 106.768 69.5795 106.148 69.6294 105.445C69.6794 104.741 69.5778 104.113 69.3246 103.558C69.0715 103.004 68.6884 102.562 68.1755 102.234C67.6756 101.893 67.086 101.699 66.4069 101.651C65.7278 101.603 65.1107 101.711 64.5555 101.976C64.0134 102.23 63.5718 102.613 63.2307 103.126C62.9017 103.638 62.7123 104.247 62.6623 104.95C62.6123 105.653 62.7131 106.294 62.9645 106.873C63.2281 107.452 63.6155 107.919 64.1267 108.272C64.6387 108.613 65.2283 108.807 65.8953 108.854ZM77.3203 110.726C76.3986 110.661 75.5825 110.396 74.8721 109.931C74.1624 109.454 73.6217 108.83 73.2498 108.06C72.8779 107.291 72.7251 106.439 72.7914 105.505C72.8577 104.571 73.1294 103.749 73.6064 103.04C74.0834 102.33 74.7064 101.795 75.4754 101.436C76.2445 101.076 77.0898 100.929 78.0115 100.994C78.9332 101.06 79.7493 101.325 80.4598 101.79C81.1702 102.255 81.7054 102.871 82.0652 103.641C82.4371 104.41 82.5899 105.262 82.5235 106.196C82.4572 107.13 82.1856 107.952 81.7086 108.661C81.2437 109.372 80.6263 109.913 79.8564 110.285C79.0873 110.645 78.242 110.792 77.3203 110.726ZM77.4017 109.58C78.0808 109.629 78.698 109.52 79.2531 109.255C79.8212 108.978 80.2771 108.566 80.6208 108.017C80.9644 107.469 81.1621 106.831 81.2138 106.103C81.2655 105.375 81.16 104.716 80.8973 104.124C80.6346 103.533 80.2411 103.066 79.7169 102.724C79.2057 102.371 78.6105 102.17 77.9314 102.122C77.2523 102.074 76.6287 102.188 76.0605 102.464C75.5054 102.73 75.0499 103.136 74.6941 103.684C74.3505 104.232 74.1528 104.87 74.1011 105.598C74.0494 106.326 74.155 106.985 74.4177 107.577C74.6925 108.169 75.0855 108.642 75.5967 108.995C76.1209 109.337 76.7226 109.532 77.4017 109.58ZM93.3925 102.16L92.7129 111.728L91.4214 111.636L92.0195 103.214L87.4354 102.888L87.1401 105.244C86.9018 107.226 86.5629 108.738 86.1233 109.779C85.6837 110.821 84.997 111.308 84.0632 111.242C83.8085 111.224 83.5027 111.153 83.1458 111.03L83.3155 109.927C83.5304 109.991 83.6802 110.026 83.7651 110.032C84.2623 110.068 84.6547 109.864 84.9421 109.421C85.2295 108.978 85.4397 108.42 85.5729 107.747C85.706 107.074 85.8425 106.182 85.9824 105.071L86.389 101.662L93.3925 102.16ZM100.935 106.096C102.135 106.193 103.025 106.525 103.607 107.09C104.2 107.656 104.462 108.431 104.392 109.413C104.32 110.432 103.925 111.19 103.207 111.687C102.501 112.186 101.512 112.384 100.24 112.281L96.3845 111.989L97.0641 102.42L98.3557 102.512L98.1179 105.859L100.935 106.096ZM100.237 111.294C101.121 111.369 101.801 111.24 102.275 110.908C102.763 110.565 103.032 110.036 103.083 109.32C103.133 108.617 102.945 108.079 102.521 107.708C102.096 107.336 101.436 107.113 100.539 107.037L98.0494 106.823L97.7471 111.08L100.237 111.294ZM120.521 104.086L119.841 113.655L106.635 112.717L107.314 103.148L108.606 103.24L108.006 111.681L112.7 112.014L113.299 103.574L114.591 103.665L113.991 112.106L118.63 112.435L119.229 103.995L120.521 104.086ZM132.208 110.127L124.204 109.559C124.206 110.558 124.531 111.392 125.178 112.059C125.826 112.715 126.678 113.08 127.733 113.155C128.327 113.197 128.88 113.133 129.392 112.962C129.905 112.779 130.358 112.494 130.751 112.108L131.419 112.996C130.959 113.476 130.397 113.826 129.736 114.047C129.086 114.269 128.379 114.353 127.615 114.298C126.633 114.229 125.775 113.961 125.04 113.494C124.318 113.016 123.771 112.392 123.399 111.622C123.027 110.852 122.875 110.001 122.941 109.067C123.007 108.133 123.267 107.31 123.719 106.599C124.184 105.889 124.783 105.352 125.516 104.99C126.261 104.628 127.076 104.479 127.961 104.542C128.846 104.605 129.626 104.867 130.3 105.33C130.974 105.792 131.485 106.407 131.833 107.175C132.181 107.931 132.322 108.782 132.255 109.728L132.208 110.127ZM127.882 105.651C126.96 105.586 126.163 105.828 125.49 106.377C124.831 106.916 124.425 107.655 124.273 108.595L131.058 109.076C131.04 108.124 130.737 107.335 130.147 106.708C129.571 106.07 128.816 105.718 127.882 105.651Z" fill="#B777BE"/>
<rect x="11.6375" y="2.67083" width="166.947" height="126.565" transform="rotate(4.06256 11.6375 2.67083)" stroke="#C6C6C6" stroke-width="5"/>
<defs>
<linearGradient id="paint0_linear_206_282" x1="95.2943" y1="2.20627e-07" x2="91.3109" y2="137.804" gradientUnits="userSpaceOnUse">
<stop stop-color="white"/>
<stop offset="1" stop-color="#F2E9F3"/>
</linearGradient>
</defs>
</svg>
