<svg width="40" height="37" viewBox="0 0 40 37" fill="none" xmlns="http://www.w3.org/2000/svg">
<g clip-path="url(#clip0_206_255)">
<path d="M39.8879 20.3382C39.9243 20.0814 39.9607 19.8246 40 19.5684V17.3427C39.9695 17.1339 39.9414 16.9247 39.9133 16.7155C39.8479 16.2289 39.7861 15.7693 39.6961 15.3123C38.681 10.1591 35.7629 6.03853 31.0231 3.065C28.2343 1.31555 25.0481 0.304286 21.5528 0.0592854C21.4106 0.0493226 21.2898 0.0216423 21.1996 0.000244141H18.7545C18.525 0.0289546 18.2952 0.0563414 18.0653 0.0836779C17.5499 0.145075 17.0169 0.208534 16.5032 0.286617C8.69098 1.47417 2.10332 7.29842 0.483186 14.4501C0.355065 15.0156 0.274711 15.589 0.189686 16.1961C0.149137 16.4852 0.107209 16.7842 0.0598663 17.0808C0.0439446 17.1807 0.0227141 17.2727 0.00403261 17.3537C0.00265326 17.3595 0.00138043 17.3653 0 17.371V19.6202C0.00212283 19.629 0.00414022 19.6379 0.00626304 19.6468C0.0291913 19.7445 0.0576391 19.8662 0.0693152 20.0047C0.300612 22.7535 1.17771 25.3607 2.67589 27.7536C7.16128 34.9172 16.0271 38.4176 24.7372 36.4652C26.7023 36.0246 28.5752 35.3119 30.3038 34.3468C30.6133 34.174 30.7597 33.9033 30.7054 33.6042C30.6534 33.3184 30.4184 33.0987 30.0921 33.031C29.9011 32.9914 29.6997 33.0472 29.3231 33.2447C24.6051 35.7199 19.6307 36.2453 14.5389 34.8062C9.92262 33.5019 6.10171 30.6123 3.77993 26.6697C1.46081 22.7316 0.902578 18.1954 2.2082 13.8971C3.42444 9.89291 6.16699 6.43979 9.93079 4.17374C13.6987 1.90523 18.2232 0.987902 22.6699 1.59162C27.2475 2.21271 31.0824 4.18287 34.0683 7.44733C37.4406 11.1344 38.8864 15.4667 38.3657 20.324C38.0816 22.975 37.084 25.5261 35.4007 27.9064C35.2501 28.1194 35.1929 28.3458 35.2395 28.5437C35.2794 28.7136 35.3948 28.8583 35.573 28.9624C35.9578 29.1871 36.3912 29.0713 36.677 28.6675C38.1502 26.5878 39.1355 24.3698 39.6058 22.0753C39.722 21.508 39.8026 20.9398 39.8879 20.3382Z" fill="#B777BE"/>
<path d="M23.8768 15.1897C23.5805 14.9157 23.0983 14.9133 22.8008 15.1846C22.6572 15.3154 22.5774 15.4908 22.5762 15.6785C22.5749 15.8665 22.6526 16.0433 22.7949 16.1763C22.9368 16.3058 23.1276 16.3825 23.3319 16.3835C23.5361 16.3846 23.727 16.3131 23.8696 16.1825C24.0147 16.0496 24.0949 15.8724 24.0956 15.6835C24.0964 15.4969 24.0192 15.3221 23.8782 15.191C23.8777 15.1905 23.8772 15.1901 23.8768 15.1897Z" fill="#B777BE"/>
<path d="M20.776 18.0571C20.4797 17.7832 19.9975 17.7807 19.6999 18.052C19.5563 18.1828 19.4766 18.3582 19.4754 18.5459C19.4741 18.7339 19.5517 18.9107 19.694 19.0437C19.836 19.1733 20.0268 19.2499 20.2311 19.2509C20.4352 19.252 20.6261 19.1806 20.7688 19.0499C20.9138 18.917 20.9941 18.7398 20.9948 18.5509C20.9955 18.3644 20.9183 18.1895 20.7774 18.0584C20.7769 18.058 20.7764 18.0575 20.776 18.0571Z" fill="#B777BE"/>
<path d="M26.9775 12.3225C26.6812 12.0486 26.199 12.0461 25.9015 12.3174C25.7579 12.4482 25.6781 12.6236 25.6769 12.8113C25.6756 12.9993 25.7533 13.1761 25.8956 13.3091C26.0375 13.4387 26.2283 13.5153 26.4326 13.5163C26.6368 13.5174 26.8277 13.4459 26.9703 13.3153C27.1154 13.1824 27.1956 13.0052 27.1963 12.8163C27.1971 12.6297 27.1199 12.4549 26.9789 12.3238C26.9784 12.3233 26.9779 12.3229 26.9775 12.3225Z" fill="#B777BE"/>
<path d="M17.6751 20.9248C17.3789 20.6508 16.8966 20.6484 16.5991 20.9197C16.4555 21.0505 16.3757 21.2259 16.3745 21.4136C16.3733 21.6016 16.4509 21.7784 16.5932 21.9114C16.7352 22.0409 16.9259 22.1176 17.1303 22.1186C17.3344 22.1197 17.5253 22.0482 17.668 21.9176C17.813 21.7847 17.8933 21.6075 17.894 21.4186C17.8947 21.232 17.8175 21.0572 17.6766 20.9261C17.676 20.9256 17.6756 20.9252 17.6751 20.9248Z" fill="#B777BE"/>
<path d="M14.5743 23.792C14.2781 23.518 13.7958 23.5156 13.4983 23.7869C13.3547 23.9177 13.2749 24.0931 13.2737 24.2808C13.2724 24.4688 13.3501 24.6456 13.4924 24.7786C13.6344 24.9081 13.8251 24.9848 14.0294 24.9858C14.2336 24.9869 14.4245 24.9154 14.5671 24.7848C14.7122 24.6519 14.7924 24.4747 14.7931 24.2858C14.7939 24.0992 14.7167 23.9243 14.5757 23.7933C14.5752 23.7928 14.5748 23.7924 14.5743 23.792Z" fill="#B777BE"/>
<path d="M30.689 15.657C30.2988 15.657 29.9825 15.3645 29.9825 15.0037V10.0897C29.9825 9.78489 29.7142 9.53689 29.3846 9.53689H24.0707C23.6805 9.53689 23.3641 9.24438 23.3641 8.88356C23.3641 8.52273 23.6805 8.23022 24.0707 8.23022H29.3846C30.4935 8.23022 31.3955 9.06441 31.3955 10.0897V15.0037C31.3955 15.3645 31.0792 15.657 30.689 15.657Z" fill="#B777BE"/>
<path d="M15.9374 29.2985L10.6233 29.2984C9.51446 29.2984 8.61241 28.4642 8.61241 27.4389L8.6123 22.5249C8.6123 22.1641 8.92863 21.8716 9.31883 21.8716C9.70903 21.8716 10.0253 22.1641 10.0253 22.5249L10.0255 27.4389C10.0255 27.7436 10.2937 27.9917 10.6233 27.9917L15.9374 27.9918C16.3276 27.9918 16.6439 28.2843 16.6439 28.6451C16.6439 29.0059 16.3276 29.2985 15.9374 29.2985Z" fill="#B777BE"/>
</g>
<defs>
<clipPath id="clip0_206_255">
<rect width="40" height="37" fill="white" transform="translate(0 0.000244141)"/>
</clipPath>
</defs>
</svg>
