<svg width="44" height="50" viewBox="0 0 44 50" fill="none" xmlns="http://www.w3.org/2000/svg">
<g clip-path="url(#clip0_206_250)">
<path d="M28.3071 27.3618C29.1941 29.1599 29.7063 31.1402 29.81 33.163H23.8314C23.6824 31.4564 23.0368 29.8562 21.9659 28.541L22.7713 27.7145C23.0626 27.4156 23.0626 26.9311 22.7713 26.6322L22.7713 26.6322C22.48 26.3333 22.0079 26.3333 21.7167 26.6322L19.8801 28.5169L20.3335 28.9822C21.5306 30.2107 22.2805 31.8416 22.365 33.5766C22.5671 37.7251 19.1707 41.132 15.1035 40.793C11.8399 40.5209 9.21548 37.8108 8.96904 34.4602C8.6721 30.423 11.7891 27.0404 15.6615 27.0404H16.4073V19.4087C18.2587 19.5089 20.079 19.9797 21.7431 20.7908C22.0988 20.9642 22.5248 20.8144 22.7115 20.4587L22.7115 20.4587C22.9156 20.0699 22.7557 19.5893 22.3668 19.4003C20.2846 18.3883 17.9829 17.8564 15.6615 17.8564C6.82028 17.8564 -0.333354 25.4133 0.0120005 34.5635C0.326827 42.9048 6.91424 49.6648 15.0426 49.9879C23.9591 50.3423 31.3231 43.0012 31.3231 33.9283C31.3231 31.3949 30.7397 28.8966 29.6299 26.6541C29.4382 26.2667 28.965 26.1281 28.5976 26.3441L28.5975 26.3441C28.2501 26.5483 28.1262 26.9953 28.3071 27.3618ZM23.8297 34.6937H29.8118C29.6375 38.1274 28.2967 41.2493 26.1896 43.65L21.9625 39.3121C22.9998 38.0359 23.6754 36.441 23.8297 34.6937ZM20.9078 40.3945L25.1348 44.7324C22.7955 46.8946 19.7533 48.2706 16.4072 48.4494V42.3106C18.11 42.1523 19.6641 41.4589 20.9078 40.3945ZM14.9156 42.3106V48.4494C11.5695 48.2706 8.52733 46.8946 6.18805 44.7324L10.4151 40.3945C11.6587 41.4589 13.2129 42.1523 14.9156 42.3106ZM9.36032 39.3122L5.1333 43.65C3.02631 41.2495 1.68548 38.1275 1.51107 34.6937H7.49317C7.6474 36.441 8.32308 38.0359 9.36032 39.3122ZM7.49238 33.163H1.51106C1.68538 29.7292 3.0263 26.6073 5.1333 24.2066L9.36003 28.5441C8.32269 29.8205 7.64651 31.4155 7.49238 33.163ZM10.4147 27.4618L6.18804 23.1243C8.52733 20.9621 11.5695 19.5862 14.9156 19.4073V25.5443C13.2126 25.7024 11.6584 26.3973 10.4147 27.4618Z" fill="#B777BE"/>
<path d="M43.2004 0.820791C42.1343 -0.273323 40.3993 -0.27322 39.333 0.820791L36.345 3.8872L35.466 2.98514L34.4114 4.06752L35.2905 4.96958L28.0831 12.3659C27.1998 13.2724 27.049 14.6497 27.6295 15.7176L26.8526 16.5149C26.5613 16.8138 26.5613 17.2983 26.8526 17.5972L26.8526 17.5972C27.1439 17.8961 27.616 17.8961 27.9073 17.5972L28.6841 16.8C29.0968 17.0362 29.5566 17.155 30.0167 17.155C30.7169 17.155 31.4172 16.8816 31.9502 16.3344L39.1576 8.93817L40.0365 9.84003L41.091 8.75776L40.2123 7.856L43.2004 4.78958C44.2666 3.69526 44.2666 1.91501 43.2004 0.820791ZM30.8955 15.252C30.4109 15.7493 29.6223 15.7494 29.1377 15.252C28.6531 14.7547 28.6531 13.9455 29.1377 13.4481L36.3451 6.05186L38.103 7.85579L30.8955 15.252ZM42.1458 3.7071L39.1576 6.77351L37.3998 4.96958L40.3878 1.90327C40.6302 1.65449 40.9485 1.5302 41.2668 1.5302C41.5851 1.5302 41.9034 1.65459 42.1458 1.90317C42.6304 2.40053 42.6304 3.20974 42.1458 3.7071Z" fill="#B777BE"/>
<path d="M25.56 26.5303C27.0678 26.5303 28.2945 25.2715 28.2945 23.7241C28.2945 23.3332 28.181 22.6128 27.1994 20.8764C26.6933 19.9811 26.1946 19.2385 26.1736 19.2073L25.56 18.2957L24.9464 19.2073C24.9254 19.2385 24.4266 19.9811 23.9206 20.8764C22.939 22.6128 22.8254 23.3332 22.8254 23.7241C22.8254 25.2715 24.0522 26.5303 25.56 26.5303ZM25.56 21.0434C26.2323 22.1613 26.803 23.3151 26.803 23.7242C26.803 24.4276 26.2454 24.9997 25.56 24.9997C24.8746 24.9997 24.317 24.4276 24.317 23.7242C24.317 23.3151 24.8877 22.1613 25.56 21.0434Z" fill="#B777BE"/>
</g>
<defs>
<clipPath id="clip0_206_250">
<rect width="44" height="50" fill="white" transform="translate(0 0.000244141)"/>
</clipPath>
</defs>
</svg>
