<svg width="62" height="23" viewBox="0 0 62 23" fill="none" xmlns="http://www.w3.org/2000/svg">
<path d="M16.5171 7.6H18.7611L20.5011 10.144L22.2411 7.6H24.5211L21.7251 11.62L24.7491 16H22.4571L20.5011 13.216L18.5691 16H16.3251L19.3251 11.704L16.5171 7.6ZM25.6397 16V7.6H27.5717V13.072L31.5797 7.6H33.4037V16H31.4837V10.54L27.4757 16H25.6397ZM37.3072 16V8.74L37.7512 9.184H34.6312V7.6H41.9152V9.184H38.7952L39.2272 8.74V16H37.3072ZM43.3222 13.084L42.9502 7.6H45.1822L44.8102 13.084H43.3222ZM44.0662 16.096C43.7302 16.096 43.4542 15.988 43.2382 15.772C43.0222 15.556 42.9142 15.3 42.9142 15.004C42.9142 14.7 43.0222 14.448 43.2382 14.248C43.4542 14.04 43.7302 13.936 44.0662 13.936C44.4102 13.936 44.6862 14.04 44.8942 14.248C45.1102 14.448 45.2182 14.7 45.2182 15.004C45.2182 15.3 45.1102 15.556 44.8942 15.772C44.6862 15.988 44.4102 16.096 44.0662 16.096Z" fill="#B777BE"/>
<rect x="0.5" y="0.5" width="61" height="22" stroke="#6A6A6A"/>
</svg>
