<svg width="141" height="55" viewBox="0 0 141 55" fill="none" xmlns="http://www.w3.org/2000/svg">
<g clip-path="url(#clip0_206_379)">
<path d="M74.0875 14.8289C70.4132 18.8184 67.0086 23.0523 63.8967 27.5021C60.6922 31.9766 57.6085 36.6415 55.2155 41.6149L56.5857 41.036C54.4682 39.052 51.3015 38.4808 48.5462 38.0391C43.7263 37.2775 38.7743 37.2775 33.9129 37.4298C22.8723 37.7863 11.8843 39.1217 1.07566 41.4207L0.754833 41.9995C30.5725 26.7558 61.2697 13.854 93.7559 5.74282C94.1333 5.65142 95.2166 4.82507 94.2805 5.05736C61.5528 13.2333 30.5725 26.2264 0.566113 41.5844C0.418912 41.6644 -0.403906 42.3041 0.249064 42.167C10.6379 39.9809 21.188 38.6639 31.7917 38.2295C36.4973 37.9925 41.214 38.1199 45.9004 38.6103C48.9576 38.9644 52.849 39.4823 55.2193 41.6986C55.5213 41.9842 56.4422 41.4283 56.5857 41.1236C58.956 36.1769 62.0246 31.6072 65.18 27.1556C68.2832 22.6992 71.6883 18.4646 75.3708 14.4823C75.6312 14.2044 74.3291 14.5775 74.0913 14.8289H74.0875Z" fill="#1D1D1B"/>
<path d="M71.8455 31.4738C71.029 31.2412 70.175 31.1743 69.3328 31.2769C68.4905 31.3795 67.6768 31.6497 66.9388 32.0716C66.0442 32.5476 64.5609 33.77 64.7458 34.962C64.9308 36.1539 66.867 35.5636 67.5766 35.3199C69.4357 34.7031 71.0861 33.5724 72.3399 32.0564C72.6079 31.7251 71.2718 32.1706 71.0604 32.4029C70.3961 33.1227 69.2411 34.307 69.5506 35.4113C69.8035 36.3176 71.5699 35.815 72.1097 35.6817C72.4871 35.5903 73.5704 34.7639 72.6343 35C69.7507 35.7236 71.302 33.1798 72.3399 32.0564L71.0604 32.4029C70.2677 33.4072 69.226 34.1823 68.0409 34.6497C67.5653 34.8363 66.5311 35.1714 66.1839 34.5926C65.9008 34.1128 66.3764 33.3968 66.6406 33.0427C67.5804 31.7746 69.2298 31.8241 70.5961 32.2049C71.0075 32.3192 72.0304 31.5195 71.8643 31.4738H71.8455Z" fill="#1D1D1B"/>
<path d="M97.0736 32.3269C96.2432 32.9515 95.4808 33.7016 95.5638 34.8212C95.6242 35.5828 96.5338 35.5828 97.0736 35.5257C99.2929 35.3696 101.508 33.7245 102.863 32.0566C103.131 31.7253 101.799 32.1708 101.588 32.4031C101.316 32.7001 99.2665 35.0116 100.267 35.5105C101.267 36.0093 102.637 34.8707 103.324 34.3681C104.098 33.7892 102.769 34.1091 102.471 34.3376C101.897 34.7679 101.274 35.0078 101.508 34.0825C101.705 33.3208 102.346 32.6354 102.863 32.0718L101.588 32.4183C100.648 33.5607 99.4137 34.5851 97.904 34.7946C96.1828 35.0345 97.1944 32.9134 97.904 32.3764C98.6777 31.7976 97.3529 32.1175 97.0509 32.3422L97.0736 32.3269Z" fill="#1D1D1B"/>
<path d="M77.1259 31.9879C75.7369 31.9346 72.5174 34.7221 74.7292 35.6094C75.635 35.9902 76.8391 34.962 77.4052 34.368C78.6847 33.0275 79.6434 31.3558 80.6248 29.7983C82.1874 27.3192 83.7236 24.8478 85.3503 22.3954C89.589 16.0549 94.4806 10.0382 100.61 5.46851C102.29 4.22147 104.069 3.11594 105.928 2.1631C106.868 1.67947 107.842 1.25297 108.827 0.860737C108.604 0.948323 108.801 0.548475 108.623 0.841697C108.046 1.7861 107.351 2.66957 106.698 3.56066C100.199 12.4335 93.4879 21.1502 86.996 30.0306C84.1312 33.9491 81.2438 37.8752 78.6244 41.9651C77.9623 42.89 77.404 43.8862 76.9598 44.9354C76.5824 46.0131 78.0657 45.2324 78.4092 44.8592C81.9722 41.0207 83.9198 35.7198 88.3359 32.6277C90.5099 31.1045 90.2495 34.2804 91.2535 35.1258C92.9444 36.5538 96.6697 33.2979 97.8134 32.4335C98.5682 31.8508 97.2585 32.1745 96.9566 32.403C96.0922 33.0542 93.4049 35.6513 92.3896 34.208C91.9744 33.6178 91.9555 32.8029 91.5969 32.1707C90.7477 30.6703 88.4491 31.9651 87.4791 32.5934C83.0404 35.4685 80.5078 40.8645 77.3486 44.9506C76.8881 45.5485 78.2545 45.0877 78.262 44.7069C78.2757 44.5852 78.3062 44.466 78.3526 44.3527C78.5459 43.8694 78.7834 43.4054 79.0622 42.9666C79.9605 41.4167 80.9796 39.9392 81.9911 38.4617C85.1352 33.892 88.4415 29.4061 91.7479 24.9392C97.6246 17.0032 103.796 9.24992 109.457 1.14253C109.567 0.986404 110.476 -0.125554 109.786 0.000112708C106.562 0.643677 103.181 3.00849 100.52 4.85921C94.507 9.04809 89.6531 14.7374 85.4485 20.7046C83.131 23.9986 81.0437 27.4487 78.8848 30.8531C78.1985 31.9745 77.4526 33.0576 76.6503 34.0976C76.4176 34.4327 76.1335 34.7283 75.8087 34.9735C76.1031 34.7907 76.1559 34.9201 75.9294 34.8288C75.2538 34.5584 75.352 32.7038 76.0389 32.7305C76.3824 32.7305 77.5487 31.9689 77.1259 31.9689V31.9879Z" fill="#1D1D1B"/>
<path d="M103.92 30.7504C102.743 33.9149 107.853 33.2865 109.355 32.2431L108.287 32.4031C107.155 33.6788 106.132 36.4054 108.861 35.48C110.684 34.8593 112.081 33.3246 113.556 32.1632C114.153 31.6986 114.372 32.2546 114.511 32.9248C114.73 33.9644 114.64 35.7351 116.051 35.8303C118.893 36.0169 122.128 32.106 123.827 30.4038L122.634 30.659C116.1 37.7344 110.933 46.3711 106.404 54.8326L107.721 54.2119C104.989 52.662 100.486 50.1639 100.474 46.4967C100.474 43.694 104.06 42.3307 106.068 41.333C108.676 40.0383 111.307 38.7816 113.975 37.6049C116.492 36.498 119.056 35.5041 121.668 34.6232C123.068 34.1472 124.487 33.7397 125.914 33.3513C126.563 33.1761 127.22 33.0162 127.873 32.86C128.737 32.6506 129.454 32.4792 128.865 33.4846C128.084 34.8821 126.82 36.0588 126.442 37.6582C126.223 38.6064 127.812 37.7191 128.035 37.5173C128.628 36.9842 128.858 36.036 129.254 35.3696C129.797 34.5083 130.46 33.731 131.224 33.0619C132.576 31.8128 134.716 30.3315 136.641 30.3962C137.543 30.4191 137.275 31.1388 136.761 31.4358C135.975 31.8472 135.16 32.1997 134.323 32.4907C132.945 33.0352 131.281 33.5036 130.137 34.4937C128.994 35.4838 130.749 35.8113 131.534 35.9446C134.244 36.4092 137.086 36.3254 139.837 36.3635C140.185 36.3635 141.325 35.6019 140.925 35.6019C138.246 35.637 135.567 35.5098 132.904 35.221C132.764 35.221 130.462 34.8402 131.285 34.3109C133.127 33.1418 135.403 32.7077 137.324 31.6453C137.769 31.4054 138.618 30.9522 138.664 30.3619C138.747 29.2195 136.739 29.6879 136.188 29.8212C134.433 30.2401 132.772 31.2264 131.315 32.2698C130.508 32.8626 129.761 33.5334 129.084 34.2728C128.682 34.72 128.317 35.2002 127.993 35.7085C127.707 36.1426 127.401 37.3688 127.027 37.6125L127.937 37.3612C127.303 37.0146 130.364 32.9743 130.579 32.2964C130.934 31.2454 126.774 32.6049 126.457 32.6773C120.618 34.2005 115.032 36.5539 109.582 39.151C107.019 40.3657 104.362 41.5082 101.977 43.0314C100.572 43.9339 99.293 45.2705 99.1193 47.0032C98.7419 50.6361 103.909 53.4769 106.468 54.9392C106.815 55.1373 107.631 54.6156 107.789 54.3185C112.281 45.9179 117.421 37.3345 123.913 30.3086C124.193 30.004 122.924 30.3619 122.724 30.56C121.97 31.3216 117.561 36.4967 116.399 34.5661C115.855 33.6635 116.131 32.4678 115.644 31.5424C115.074 30.4724 113.288 31.6872 112.703 32.1175C112.024 32.6201 109.035 35.6971 108.45 34.6993C107.993 33.9377 109.118 32.544 109.582 32.0337C109.903 31.6757 108.642 32.1022 108.518 32.1898C107.159 33.1342 104.66 31.969 105.313 30.2172C105.381 30.0306 104.086 30.3315 103.939 30.7275L103.92 30.7504Z" fill="#1D1D1B"/>
</g>
<defs>
<clipPath id="clip0_206_379">
<rect width="141" height="55" fill="white"/>
</clipPath>
</defs>
</svg>
