<svg width="76" height="86" viewBox="0 0 76 86" fill="none" xmlns="http://www.w3.org/2000/svg">
<g clip-path="url(#clip0_206_314)">
<path d="M75.455 46.84C75.445 46.68 75.435 46.52 75.425 46.36C75.415 46.18 75.405 45.2 75.385 45.03L75.375 44.95C75.285 44.17 74.575 43.61 73.785 43.7C73.005 43.79 72.435 44.5 72.535 45.28L72.755 47.14L70.745 47.13C69.955 47.13 69.315 47.77 69.315 48.55C69.315 49.34 69.955 49.98 70.745 49.98L72.655 49.99C72.405 56.09 70.575 61.78 67.555 66.67H57.705C59.205 62.11 60.115 57.05 60.375 51.78C60.025 51.29 59.705 50.78 59.385 50.26C58.575 49.29 57.795 48.26 57.065 47.16H39.415V30.46H47.555L49.975 30.47C50.765 30.47 51.405 29.84 51.405 29.06C51.405 28.28 50.765 27.65 49.975 27.65L46.875 27.64V27.65H39.405V14.02C43.305 14.52 47.005 17.07 50.095 21.37H50.085L51.745 23.98C52.165 24.64 53.055 24.84 53.715 24.42C54.385 24 54.575 23.11 54.155 22.45L53.795 21.89C53.485 21.38 53.175 20.89 52.845 20.41L52.505 19.85L52.485 19.87C51.335 18.26 50.105 16.85 48.805 15.66C51.495 16.54 54.045 17.76 56.405 19.24L57.865 20.29C58.505 20.75 59.395 20.61 59.865 19.97C60.325 19.33 60.185 18.44 59.545 17.98C59.545 17.98 58.275 17.05 56.745 16.21C56.735 16.21 56.735 16.2 56.725 16.2C51.235 13.06 44.755 11.12 38.015 11.12C37.235 11.12 36.605 11.75 36.605 12.53V27.64H28.995C28.215 27.64 27.585 28.27 27.585 29.05C27.585 29.83 28.215 30.46 28.995 30.46H36.605V47.16H18.375C18.425 45.16 18.565 43.17 18.805 41.23C18.905 40.46 18.355 39.76 17.575 39.66C16.805 39.56 16.095 40.11 16.005 40.88C15.755 42.93 15.605 45.04 15.555 47.15H3.355C3.375 46.61 3.415 46.08 3.455 45.55C3.465 45.47 3.465 45.39 3.475 45.31C3.575 44.22 3.725 43.15 3.925 42.1C3.925 42.09 3.925 42.09 3.925 42.08C4.025 41.53 4.145 40.99 4.275 40.46C5.215 36.55 6.835 32.81 9.09501 29.42C9.52501 28.77 9.34501 27.9 8.705 27.47C8.055 27.04 7.185 27.22 6.755 27.86C3.815 32.28 1.875 37.22 1.015 42.41C0.995005 42.54 0.975005 42.66 0.955005 42.79C0.915005 43.03 0.885005 43.28 0.855005 43.52C0.825005 43.71 0.805005 43.9 0.785005 44.09C0.755005 44.31 0.735005 44.52 0.715005 44.74C0.695005 44.97 0.675005 45.2 0.655005 45.42C0.635005 45.61 0.625005 45.8 0.605005 45.99C0.585005 46.26 0.575005 46.54 0.565005 46.81C0.555005 46.96 0.545005 47.11 0.545005 47.27C0.515005 47.7 0.505005 48.13 0.505005 48.56C0.505005 50.5 0.655005 52.4 0.935005 54.25C3.59501 71.58 18.205 85.04 36.075 85.95C36.715 85.98 37.355 86 38.005 86C38.655 86 39.295 85.98 39.935 85.95C57.805 85.04 72.415 71.58 75.075 54.25C75.355 52.39 75.505 50.49 75.505 48.56C75.495 47.98 75.485 47.41 75.455 46.84ZM3.355 49.97H15.555C15.685 55.9 16.635 61.6 18.305 66.67H8.455C5.435 61.77 3.605 56.07 3.355 49.97ZM26.255 81.13C26.155 81.1 26.065 81.06 25.965 81.03C25.645 80.91 25.335 80.79 25.025 80.66C24.925 80.62 24.825 80.59 24.735 80.55C24.425 80.42 24.115 80.28 23.805 80.15C23.715 80.11 23.615 80.07 23.525 80.02C23.225 79.88 22.925 79.73 22.625 79.58C22.535 79.53 22.435 79.49 22.345 79.44C22.045 79.29 21.755 79.13 21.455 78.97C21.365 78.92 21.275 78.87 21.185 78.83C20.885 78.67 20.595 78.49 20.305 78.32C20.225 78.27 20.135 78.22 20.045 78.17C19.755 78 19.475 77.82 19.195 77.63C19.105 77.57 19.025 77.52 18.935 77.46C18.645 77.27 18.355 77.06 18.065 76.86C17.995 76.81 17.925 76.77 17.865 76.72C17.555 76.5 17.255 76.27 16.955 76.04C16.905 76.01 16.865 75.97 16.815 75.94C16.495 75.69 16.185 75.44 15.875 75.19C15.845 75.17 15.825 75.15 15.795 75.13C13.795 73.46 11.975 71.56 10.395 69.49H19.335C20.085 71.35 20.945 73.12 21.895 74.75C22.215 75.3 22.545 75.82 22.875 76.33C22.885 76.34 22.885 76.35 22.895 76.36C22.915 76.39 22.935 76.42 22.955 76.45C23.265 76.92 23.585 77.37 23.905 77.8C23.905 77.81 23.915 77.81 23.925 77.82C24.955 79.2 26.045 80.42 27.195 81.46C26.885 81.36 26.565 81.25 26.255 81.13ZM36.595 83.09C32.755 82.59 29.055 80.07 25.985 75.84C25.925 75.76 25.865 75.68 25.815 75.6C25.675 75.41 25.545 75.22 25.415 75.02C25.045 74.48 24.695 73.92 24.345 73.32C23.635 72.11 22.995 70.82 22.405 69.48H36.605V83.09H36.595ZM36.595 66.67H21.285C19.515 61.66 18.515 55.95 18.375 49.97H36.585V66.67H36.595ZM39.415 49.97H57.625C57.485 55.95 56.485 61.67 54.715 66.67H39.415V49.97ZM39.415 83.09V69.49H53.615C53.025 70.84 52.375 72.12 51.675 73.33C51.325 73.92 50.965 74.49 50.605 75.03C50.475 75.23 50.345 75.42 50.205 75.61C50.145 75.69 50.085 75.77 50.035 75.85C46.945 80.07 43.255 82.6 39.415 83.09ZM60.215 75.13C60.185 75.15 60.165 75.17 60.135 75.19C59.825 75.44 59.515 75.7 59.195 75.94C59.155 75.97 59.105 76.01 59.055 76.04C58.755 76.27 58.455 76.5 58.145 76.72C58.075 76.77 58.005 76.81 57.945 76.86C57.655 77.06 57.365 77.27 57.075 77.46C56.985 77.52 56.905 77.57 56.815 77.63C56.535 77.81 56.255 77.99 55.965 78.17C55.885 78.22 55.795 78.27 55.705 78.32C55.415 78.49 55.125 78.67 54.825 78.83C54.735 78.88 54.645 78.93 54.555 78.97C54.265 79.13 53.965 79.29 53.665 79.44C53.575 79.49 53.475 79.53 53.385 79.58C53.085 79.73 52.785 79.88 52.485 80.02C52.395 80.06 52.295 80.1 52.205 80.15C51.895 80.29 51.595 80.43 51.275 80.55C51.175 80.59 51.085 80.63 50.985 80.66C50.675 80.79 50.355 80.91 50.045 81.03C49.945 81.07 49.855 81.1 49.755 81.13C49.445 81.24 49.125 81.35 48.815 81.46C49.965 80.42 51.055 79.2 52.085 77.82C52.095 77.81 52.095 77.81 52.105 77.8C52.425 77.37 52.745 76.91 53.055 76.45C53.075 76.42 53.095 76.39 53.115 76.36C53.125 76.35 53.125 76.34 53.135 76.33C53.475 75.82 53.805 75.3 54.125 74.75C55.085 73.11 55.935 71.35 56.685 69.49H65.625C64.025 71.56 62.215 73.46 60.215 75.13Z" fill="#B777BE"/>
<path d="M18.225 38.19L19.215 36.95C19.735 36.3 31.955 20.95 31.955 13.72C31.955 6.15 25.795 0 18.225 0C10.645 0 4.48502 6.15 4.48502 13.71C4.48502 20.94 16.705 36.29 17.225 36.94L18.225 38.19ZM18.225 2.54C24.395 2.54 29.415 7.55 29.415 13.71C29.415 18.52 22.075 29.07 18.225 34.09C14.365 29.08 7.02502 18.53 7.02502 13.71C7.02502 7.55 12.055 2.54 18.225 2.54Z" fill="#B777BE"/>
<path d="M24.535 13.67C24.535 10.19 21.705 7.35999 18.215 7.35999C14.725 7.35999 11.895 10.19 11.895 13.67C11.895 17.15 14.725 19.98 18.215 19.98C21.705 19.98 24.535 17.15 24.535 13.67ZM14.445 13.67C14.445 11.59 16.135 9.89998 18.225 9.89998C20.305 9.89998 22.005 11.59 22.005 13.67C22.005 15.75 20.315 17.44 18.225 17.44C16.145 17.44 14.445 15.75 14.445 13.67Z" fill="#B777BE"/>
<path d="M52.545 32.09C52.545 37.95 61.875 49.78 62.945 51.11L63.935 52.35L64.925 51.11C65.985 49.78 75.325 37.95 75.325 32.09C75.325 25.82 70.215 20.72 63.935 20.72C57.655 20.72 52.545 25.82 52.545 32.09ZM63.935 23.26C68.815 23.26 72.785 27.22 72.785 32.1C72.785 35.87 67.095 44.12 63.935 48.26C60.775 44.12 55.085 35.87 55.085 32.1C55.085 27.22 59.055 23.26 63.935 23.26Z" fill="#B777BE"/>
<path d="M63.935 37.42C66.895 37.42 69.305 35.01 69.305 32.06C69.305 29.1 66.895 26.7 63.935 26.7C60.975 26.7 58.565 29.11 58.565 32.06C58.565 35.02 60.975 37.42 63.935 37.42ZM63.935 29.24C65.495 29.24 66.765 30.51 66.765 32.06C66.765 33.62 65.495 34.88 63.935 34.88C62.375 34.88 61.105 33.61 61.105 32.06C61.115 30.5 62.375 29.24 63.935 29.24Z" fill="#B777BE"/>
</g>
<defs>
<clipPath id="clip0_206_314">
<rect width="74.99" height="86" fill="white" transform="translate(0.505005)"/>
</clipPath>
</defs>
</svg>
